<svg xmlns="http://www.w3.org/2000/svg" width="64" height="64"><path d="M32 58c14.36 0 26-11.64 26-26S46.36 6 32 6 6 17.64 6 32s11.64 26 26 26zm0 3C15.984 61 3 48.016 3 32S15.984 3 32 3s29 12.984 29 29-12.984 29-29 29z" fill="#597787"/><g class="icon"><path d="M32.954 31.125c1.495 1.729-.392 3.289-.392 3.289s3.795-1.973 2.051-4.44c-1.626-2.305-2.877-3.448 3.882-7.393 0 0-10.607 2.667-5.54 8.544" fill="#F8971D"/><path d="M34.614 16.213s3.218 3.24-3.054 8.225c-5.03 3.998-1.147 6.279-.003 8.883-2.936-2.665-5.09-5.014-3.645-7.2 2.121-3.206 8.001-4.76 6.702-9.908" fill="#F8971D"/><path d="M27.446 40.331s-1.184.691.843.927c2.456.282 3.712.241 6.416-.274 0 0 .713.449 1.706.836-6.068 2.619-13.73-.15-8.965-1.489M26.706 36.917s-1.33.988.7 1.2c2.622.27 4.696.293 8.278-.401 0 0 .496.506 1.276.782-7.334 2.16-15.503.171-10.254-1.581" fill="#58839F"/><path d="M40.977 42.857s.876.725-.967 1.289c-3.5 1.065-14.572 1.389-17.646.042-1.107-.485.967-1.155 1.619-1.297.68-.147 1.07-.121 1.07-.121-1.23-.873-7.95 1.712-3.414 2.45 12.368 2.02 22.544-.907 19.338-2.363M28.015 33.38s-5.631 1.344-1.993 1.834c1.535.206 4.597.158 7.449-.082 2.331-.197 4.671-.618 4.671-.618s-.823.354-1.417.762c-5.72 1.515-16.766.81-13.585-.737 2.689-1.308 4.875-1.16 4.875-1.16M38.118 39.061c5.813-3.04 3.126-5.963 1.25-5.568-.46.097-.665.18-.665.18s.171-.27.496-.386c3.712-1.313 6.567 3.872-1.198 5.927 0 0 .09-.08.117-.153" fill="#58839F"/><path d="M28.587 47.302c5.58.358 14.15-.2 14.353-2.859 0 0-.39 1.006-4.611 1.808-4.764.902-10.639.796-14.122.218 0 0 .713.595 4.38.833" fill="#58839F"/></g></svg>